<?xml version="1.0" encoding="UTF-8"?>
<svg width="700pt" height="700pt" version="1.1" viewBox="0 0 701 572" xmlns="http://www.w3.org/2000/svg" xmlns:xlink="http://www.w3.org/1999/xlink">
 <g>
  <path d="m510.01 280c0 42.438-16.859 83.137-46.867 113.14-30.008 30.008-70.707 46.867-113.14 46.867s-83.137-16.859-113.14-46.867c-30.008-30.008-46.867-70.707-46.867-113.14s16.859-83.137 46.867-113.14c30.008-30.008 70.707-46.867 113.14-46.867 7.25 0 13.125 5.875 13.125 13.125s-5.875 13.125-13.125 13.125c-35.477 0-69.5 14.094-94.582 39.18-25.086 25.082-39.18 59.105-39.18 94.582s14.094 69.5 39.18 94.582c25.082 25.086 59.105 39.18 94.582 39.18s69.5-14.094 94.582-39.18c25.086-25.082 39.18-59.105 39.18-94.582 0-7.25 5.875-13.125 13.125-13.125s13.125 5.875 13.125 13.125z"/>
  <use x="70" y="691.25" xlink:href="#o"/>
  <use x="102.109375" y="691.25" xlink:href="#h"/>
  <use x="123.683594" y="691.25" xlink:href="#a"/>
  <use x="153.355469" y="691.25" xlink:href="#g"/>
  <use x="182.878906" y="691.25" xlink:href="#f"/>
  <use x="203.792969" y="691.25" xlink:href="#a"/>
  <use x="233.464844" y="691.25" xlink:href="#e"/>
  <use x="280.011719" y="691.25" xlink:href="#d"/>
  <use x="311.328125" y="691.25" xlink:href="#c"/>
  <use x="355.078125" y="691.25" xlink:href="#b"/>
  <use x="384.921875" y="691.25" xlink:href="#n"/>
  <use x="416.070312" y="691.25" xlink:href="#a"/>
  <use x="460.972656" y="691.25" xlink:href="#m"/>
  <use x="477.25" y="691.25" xlink:href="#l"/>
  <use x="503.183594" y="691.25" xlink:href="#k"/>
  <use x="533.242188" y="691.25" xlink:href="#j"/>
  <use x="579.617188" y="691.25" xlink:href="#i"/>
 </g>
</svg>
